<?xml version="1.0" encoding="utf-8" standalone="no"?>
<!DOCTYPE svg PUBLIC "-//W3C//DTD SVG 1.1//EN"
  "http://www.w3.org/Graphics/SVG/1.1/DTD/svg11.dtd">
<svg xmlns:xlink="http://www.w3.org/1999/xlink" width="432pt" height="432pt" viewBox="0 0 432 432" xmlns="http://www.w3.org/2000/svg" version="1.1">
 <metadata>
  <rdf:RDF xmlns:dc="http://purl.org/dc/elements/1.1/" xmlns:cc="http://creativecommons.org/ns#" xmlns:rdf="http://www.w3.org/1999/02/22-rdf-syntax-ns#">
   <cc:Work>
    <dc:type rdf:resource="http://purl.org/dc/dcmitype/StillImage"/>
    <dc:date>2025-04-09T16:03:48.827453</dc:date>
    <dc:format>image/svg+xml</dc:format>
    <dc:creator>
     <cc:Agent>
      <dc:title>Matplotlib v3.8.4, https://matplotlib.org/</dc:title>
     </cc:Agent>
    </dc:creator>
   </cc:Work>
  </rdf:RDF>
 </metadata>
 <defs>
  <style type="text/css">*{stroke-linejoin: round; stroke-linecap: butt}</style>
 </defs>
 <g id="figure_1">
  <g id="patch_1">
   <path d="M 0 432 
L 432 432 
L 432 0 
L 0 0 
z
" style="fill: #ffffff"/>
  </g>
  <g id="axes_1">
   <g id="patch_2">
    <path d="M 62.3 363.04 
L 411.48 363.04 
L 411.48 40.92 
L 62.3 40.92 
z
" style="fill: #ffffff"/>
   </g>
   <g id="matplotlib.axis_1">
    <g id="xtick_1">
     <g id="line2d_1">
      <path d="M 62.3 363.04 
L 62.3 40.92 
" clip-path="url(#p969b60b78f)" style="fill: none; stroke: #b0b0b0; stroke-opacity: 0.3; stroke-width: 0.8; stroke-linecap: square"/>
     </g>
     <g id="line2d_2">
      <defs>
       <path id="mcb24c066b5" d="M 0 0 
L 0 3.5 
" style="stroke: #000000; stroke-width: 0.8"/>
      </defs>
      <g>
       <use xlink:href="#mcb24c066b5" x="62.3" y="363.04" style="stroke: #000000; stroke-width: 0.8"/>
      </g>
     </g>
     <g id="text_1">
      <!-- 0.0 -->
      <g transform="translate(47.192031 384.477031) scale(0.19 -0.19)">
       <defs>
        <path id="DejaVuSans-30" d="M 2034 4250 
Q 1547 4250 1301 3770 
Q 1056 3291 1056 2328 
Q 1056 1369 1301 889 
Q 1547 409 2034 409 
Q 2525 409 2770 889 
Q 3016 1369 3016 2328 
Q 3016 3291 2770 3770 
Q 2525 4250 2034 4250 
z
M 2034 4750 
Q 2819 4750 3233 4129 
Q 3647 3509 3647 2328 
Q 3647 1150 3233 529 
Q 2819 -91 2034 -91 
Q 1250 -91 836 529 
Q 422 1150 422 2328 
Q 422 3509 836 4129 
Q 1250 4750 2034 4750 
z
" transform="scale(0.015625)"/>
        <path id="DejaVuSans-2e" d="M 684 794 
L 1344 794 
L 1344 0 
L 684 0 
L 684 794 
z
" transform="scale(0.015625)"/>
       </defs>
       <use xlink:href="#DejaVuSans-30"/>
       <use xlink:href="#DejaVuSans-2e" x="63.623047"/>
       <use xlink:href="#DejaVuSans-30" x="95.410156"/>
      </g>
     </g>
    </g>
    <g id="xtick_2">
     <g id="line2d_3">
      <path d="M 135.811579 363.04 
L 135.811579 40.92 
" clip-path="url(#p969b60b78f)" style="fill: none; stroke: #b0b0b0; stroke-opacity: 0.3; stroke-width: 0.8; stroke-linecap: square"/>
     </g>
     <g id="line2d_4">
      <g>
       <use xlink:href="#mcb24c066b5" x="135.811579" y="363.04" style="stroke: #000000; stroke-width: 0.8"/>
      </g>
     </g>
     <g id="text_2">
      <!-- 0.2 -->
      <g transform="translate(120.70361 384.477031) scale(0.19 -0.19)">
       <defs>
        <path id="DejaVuSans-32" d="M 1228 531 
L 3431 531 
L 3431 0 
L 469 0 
L 469 531 
Q 828 903 1448 1529 
Q 2069 2156 2228 2338 
Q 2531 2678 2651 2914 
Q 2772 3150 2772 3378 
Q 2772 3750 2511 3984 
Q 2250 4219 1831 4219 
Q 1534 4219 1204 4116 
Q 875 4013 500 3803 
L 500 4441 
Q 881 4594 1212 4672 
Q 1544 4750 1819 4750 
Q 2544 4750 2975 4387 
Q 3406 4025 3406 3419 
Q 3406 3131 3298 2873 
Q 3191 2616 2906 2266 
Q 2828 2175 2409 1742 
Q 1991 1309 1228 531 
z
" transform="scale(0.015625)"/>
       </defs>
       <use xlink:href="#DejaVuSans-30"/>
       <use xlink:href="#DejaVuSans-2e" x="63.623047"/>
       <use xlink:href="#DejaVuSans-32" x="95.410156"/>
      </g>
     </g>
    </g>
    <g id="xtick_3">
     <g id="line2d_5">
      <path d="M 209.323158 363.04 
L 209.323158 40.92 
" clip-path="url(#p969b60b78f)" style="fill: none; stroke: #b0b0b0; stroke-opacity: 0.3; stroke-width: 0.8; stroke-linecap: square"/>
     </g>
     <g id="line2d_6">
      <g>
       <use xlink:href="#mcb24c066b5" x="209.323158" y="363.04" style="stroke: #000000; stroke-width: 0.8"/>
      </g>
     </g>
     <g id="text_3">
      <!-- 0.4 -->
      <g transform="translate(194.215189 384.477031) scale(0.19 -0.19)">
       <defs>
        <path id="DejaVuSans-34" d="M 2419 4116 
L 825 1625 
L 2419 1625 
L 2419 4116 
z
M 2253 4666 
L 3047 4666 
L 3047 1625 
L 3713 1625 
L 3713 1100 
L 3047 1100 
L 3047 0 
L 2419 0 
L 2419 1100 
L 313 1100 
L 313 1709 
L 2253 4666 
z
" transform="scale(0.015625)"/>
       </defs>
       <use xlink:href="#DejaVuSans-30"/>
       <use xlink:href="#DejaVuSans-2e" x="63.623047"/>
       <use xlink:href="#DejaVuSans-34" x="95.410156"/>
      </g>
     </g>
    </g>
    <g id="xtick_4">
     <g id="line2d_7">
      <path d="M 282.834737 363.04 
L 282.834737 40.92 
" clip-path="url(#p969b60b78f)" style="fill: none; stroke: #b0b0b0; stroke-opacity: 0.3; stroke-width: 0.8; stroke-linecap: square"/>
     </g>
     <g id="line2d_8">
      <g>
       <use xlink:href="#mcb24c066b5" x="282.834737" y="363.04" style="stroke: #000000; stroke-width: 0.8"/>
      </g>
     </g>
     <g id="text_4">
      <!-- 0.6 -->
      <g transform="translate(267.726768 384.477031) scale(0.19 -0.19)">
       <defs>
        <path id="DejaVuSans-36" d="M 2113 2584 
Q 1688 2584 1439 2293 
Q 1191 2003 1191 1497 
Q 1191 994 1439 701 
Q 1688 409 2113 409 
Q 2538 409 2786 701 
Q 3034 994 3034 1497 
Q 3034 2003 2786 2293 
Q 2538 2584 2113 2584 
z
M 3366 4563 
L 3366 3988 
Q 3128 4100 2886 4159 
Q 2644 4219 2406 4219 
Q 1781 4219 1451 3797 
Q 1122 3375 1075 2522 
Q 1259 2794 1537 2939 
Q 1816 3084 2150 3084 
Q 2853 3084 3261 2657 
Q 3669 2231 3669 1497 
Q 3669 778 3244 343 
Q 2819 -91 2113 -91 
Q 1303 -91 875 529 
Q 447 1150 447 2328 
Q 447 3434 972 4092 
Q 1497 4750 2381 4750 
Q 2619 4750 2861 4703 
Q 3103 4656 3366 4563 
z
" transform="scale(0.015625)"/>
       </defs>
       <use xlink:href="#DejaVuSans-30"/>
       <use xlink:href="#DejaVuSans-2e" x="63.623047"/>
       <use xlink:href="#DejaVuSans-36" x="95.410156"/>
      </g>
     </g>
    </g>
    <g id="xtick_5">
     <g id="line2d_9">
      <path d="M 356.346316 363.04 
L 356.346316 40.92 
" clip-path="url(#p969b60b78f)" style="fill: none; stroke: #b0b0b0; stroke-opacity: 0.3; stroke-width: 0.8; stroke-linecap: square"/>
     </g>
     <g id="line2d_10">
      <g>
       <use xlink:href="#mcb24c066b5" x="356.346316" y="363.04" style="stroke: #000000; stroke-width: 0.8"/>
      </g>
     </g>
     <g id="text_5">
      <!-- 0.8 -->
      <g transform="translate(341.238347 384.477031) scale(0.19 -0.19)">
       <defs>
        <path id="DejaVuSans-38" d="M 2034 2216 
Q 1584 2216 1326 1975 
Q 1069 1734 1069 1313 
Q 1069 891 1326 650 
Q 1584 409 2034 409 
Q 2484 409 2743 651 
Q 3003 894 3003 1313 
Q 3003 1734 2745 1975 
Q 2488 2216 2034 2216 
z
M 1403 2484 
Q 997 2584 770 2862 
Q 544 3141 544 3541 
Q 544 4100 942 4425 
Q 1341 4750 2034 4750 
Q 2731 4750 3128 4425 
Q 3525 4100 3525 3541 
Q 3525 3141 3298 2862 
Q 3072 2584 2669 2484 
Q 3125 2378 3379 2068 
Q 3634 1759 3634 1313 
Q 3634 634 3220 271 
Q 2806 -91 2034 -91 
Q 1263 -91 848 271 
Q 434 634 434 1313 
Q 434 1759 690 2068 
Q 947 2378 1403 2484 
z
M 1172 3481 
Q 1172 3119 1398 2916 
Q 1625 2713 2034 2713 
Q 2441 2713 2670 2916 
Q 2900 3119 2900 3481 
Q 2900 3844 2670 4047 
Q 2441 4250 2034 4250 
Q 1625 4250 1398 4047 
Q 1172 3844 1172 3481 
z
" transform="scale(0.015625)"/>
       </defs>
       <use xlink:href="#DejaVuSans-30"/>
       <use xlink:href="#DejaVuSans-2e" x="63.623047"/>
       <use xlink:href="#DejaVuSans-38" x="95.410156"/>
      </g>
     </g>
    </g>
    <g id="text_6">
     <!-- Similarity Score -->
     <g transform="translate(162.350625 406.865469) scale(0.19 -0.19)">
      <defs>
       <path id="DejaVuSans-53" d="M 3425 4513 
L 3425 3897 
Q 3066 4069 2747 4153 
Q 2428 4238 2131 4238 
Q 1616 4238 1336 4038 
Q 1056 3838 1056 3469 
Q 1056 3159 1242 3001 
Q 1428 2844 1947 2747 
L 2328 2669 
Q 3034 2534 3370 2195 
Q 3706 1856 3706 1288 
Q 3706 609 3251 259 
Q 2797 -91 1919 -91 
Q 1588 -91 1214 -16 
Q 841 59 441 206 
L 441 856 
Q 825 641 1194 531 
Q 1563 422 1919 422 
Q 2459 422 2753 634 
Q 3047 847 3047 1241 
Q 3047 1584 2836 1778 
Q 2625 1972 2144 2069 
L 1759 2144 
Q 1053 2284 737 2584 
Q 422 2884 422 3419 
Q 422 4038 858 4394 
Q 1294 4750 2059 4750 
Q 2388 4750 2728 4690 
Q 3069 4631 3425 4513 
z
" transform="scale(0.015625)"/>
       <path id="DejaVuSans-69" d="M 603 3500 
L 1178 3500 
L 1178 0 
L 603 0 
L 603 3500 
z
M 603 4863 
L 1178 4863 
L 1178 4134 
L 603 4134 
L 603 4863 
z
" transform="scale(0.015625)"/>
       <path id="DejaVuSans-6d" d="M 3328 2828 
Q 3544 3216 3844 3400 
Q 4144 3584 4550 3584 
Q 5097 3584 5394 3201 
Q 5691 2819 5691 2113 
L 5691 0 
L 5113 0 
L 5113 2094 
Q 5113 2597 4934 2840 
Q 4756 3084 4391 3084 
Q 3944 3084 3684 2787 
Q 3425 2491 3425 1978 
L 3425 0 
L 2847 0 
L 2847 2094 
Q 2847 2600 2669 2842 
Q 2491 3084 2119 3084 
Q 1678 3084 1418 2786 
Q 1159 2488 1159 1978 
L 1159 0 
L 581 0 
L 581 3500 
L 1159 3500 
L 1159 2956 
Q 1356 3278 1631 3431 
Q 1906 3584 2284 3584 
Q 2666 3584 2933 3390 
Q 3200 3197 3328 2828 
z
" transform="scale(0.015625)"/>
       <path id="DejaVuSans-6c" d="M 603 4863 
L 1178 4863 
L 1178 0 
L 603 0 
L 603 4863 
z
" transform="scale(0.015625)"/>
       <path id="DejaVuSans-61" d="M 2194 1759 
Q 1497 1759 1228 1600 
Q 959 1441 959 1056 
Q 959 750 1161 570 
Q 1363 391 1709 391 
Q 2188 391 2477 730 
Q 2766 1069 2766 1631 
L 2766 1759 
L 2194 1759 
z
M 3341 1997 
L 3341 0 
L 2766 0 
L 2766 531 
Q 2569 213 2275 61 
Q 1981 -91 1556 -91 
Q 1019 -91 701 211 
Q 384 513 384 1019 
Q 384 1609 779 1909 
Q 1175 2209 1959 2209 
L 2766 2209 
L 2766 2266 
Q 2766 2663 2505 2880 
Q 2244 3097 1772 3097 
Q 1472 3097 1187 3025 
Q 903 2953 641 2809 
L 641 3341 
Q 956 3463 1253 3523 
Q 1550 3584 1831 3584 
Q 2591 3584 2966 3190 
Q 3341 2797 3341 1997 
z
" transform="scale(0.015625)"/>
       <path id="DejaVuSans-72" d="M 2631 2963 
Q 2534 3019 2420 3045 
Q 2306 3072 2169 3072 
Q 1681 3072 1420 2755 
Q 1159 2438 1159 1844 
L 1159 0 
L 581 0 
L 581 3500 
L 1159 3500 
L 1159 2956 
Q 1341 3275 1631 3429 
Q 1922 3584 2338 3584 
Q 2397 3584 2469 3576 
Q 2541 3569 2628 3553 
L 2631 2963 
z
" transform="scale(0.015625)"/>
       <path id="DejaVuSans-74" d="M 1172 4494 
L 1172 3500 
L 2356 3500 
L 2356 3053 
L 1172 3053 
L 1172 1153 
Q 1172 725 1289 603 
Q 1406 481 1766 481 
L 2356 481 
L 2356 0 
L 1766 0 
Q 1100 0 847 248 
Q 594 497 594 1153 
L 594 3053 
L 172 3053 
L 172 3500 
L 594 3500 
L 594 4494 
L 1172 4494 
z
" transform="scale(0.015625)"/>
       <path id="DejaVuSans-79" d="M 2059 -325 
Q 1816 -950 1584 -1140 
Q 1353 -1331 966 -1331 
L 506 -1331 
L 506 -850 
L 844 -850 
Q 1081 -850 1212 -737 
Q 1344 -625 1503 -206 
L 1606 56 
L 191 3500 
L 800 3500 
L 1894 763 
L 2988 3500 
L 3597 3500 
L 2059 -325 
z
" transform="scale(0.015625)"/>
       <path id="DejaVuSans-20" transform="scale(0.015625)"/>
       <path id="DejaVuSans-63" d="M 3122 3366 
L 3122 2828 
Q 2878 2963 2633 3030 
Q 2388 3097 2138 3097 
Q 1578 3097 1268 2742 
Q 959 2388 959 1747 
Q 959 1106 1268 751 
Q 1578 397 2138 397 
Q 2388 397 2633 464 
Q 2878 531 3122 666 
L 3122 134 
Q 2881 22 2623 -34 
Q 2366 -91 2075 -91 
Q 1284 -91 818 406 
Q 353 903 353 1747 
Q 353 2603 823 3093 
Q 1294 3584 2113 3584 
Q 2378 3584 2631 3529 
Q 2884 3475 3122 3366 
z
" transform="scale(0.015625)"/>
       <path id="DejaVuSans-6f" d="M 1959 3097 
Q 1497 3097 1228 2736 
Q 959 2375 959 1747 
Q 959 1119 1226 758 
Q 1494 397 1959 397 
Q 2419 397 2687 759 
Q 2956 1122 2956 1747 
Q 2956 2369 2687 2733 
Q 2419 3097 1959 3097 
z
M 1959 3584 
Q 2709 3584 3137 3096 
Q 3566 2609 3566 1747 
Q 3566 888 3137 398 
Q 2709 -91 1959 -91 
Q 1206 -91 779 398 
Q 353 888 353 1747 
Q 353 2609 779 3096 
Q 1206 3584 1959 3584 
z
" transform="scale(0.015625)"/>
       <path id="DejaVuSans-65" d="M 3597 1894 
L 3597 1613 
L 953 1613 
Q 991 1019 1311 708 
Q 1631 397 2203 397 
Q 2534 397 2845 478 
Q 3156 559 3463 722 
L 3463 178 
Q 3153 47 2828 -22 
Q 2503 -91 2169 -91 
Q 1331 -91 842 396 
Q 353 884 353 1716 
Q 353 2575 817 3079 
Q 1281 3584 2069 3584 
Q 2775 3584 3186 3129 
Q 3597 2675 3597 1894 
z
M 3022 2063 
Q 3016 2534 2758 2815 
Q 2500 3097 2075 3097 
Q 1594 3097 1305 2825 
Q 1016 2553 972 2059 
L 3022 2063 
z
" transform="scale(0.015625)"/>
      </defs>
      <use xlink:href="#DejaVuSans-53"/>
      <use xlink:href="#DejaVuSans-69" x="63.476562"/>
      <use xlink:href="#DejaVuSans-6d" x="91.259766"/>
      <use xlink:href="#DejaVuSans-69" x="188.671875"/>
      <use xlink:href="#DejaVuSans-6c" x="216.455078"/>
      <use xlink:href="#DejaVuSans-61" x="244.238281"/>
      <use xlink:href="#DejaVuSans-72" x="305.517578"/>
      <use xlink:href="#DejaVuSans-69" x="346.630859"/>
      <use xlink:href="#DejaVuSans-74" x="374.414062"/>
      <use xlink:href="#DejaVuSans-79" x="413.623047"/>
      <use xlink:href="#DejaVuSans-20" x="472.802734"/>
      <use xlink:href="#DejaVuSans-53" x="504.589844"/>
      <use xlink:href="#DejaVuSans-63" x="568.066406"/>
      <use xlink:href="#DejaVuSans-6f" x="623.046875"/>
      <use xlink:href="#DejaVuSans-72" x="684.228516"/>
      <use xlink:href="#DejaVuSans-65" x="723.091797"/>
     </g>
    </g>
   </g>
   <g id="matplotlib.axis_2">
    <g id="ytick_1">
     <g id="line2d_11">
      <path d="M 62.3 363.04 
L 411.48 363.04 
" clip-path="url(#p969b60b78f)" style="fill: none; stroke: #b0b0b0; stroke-opacity: 0.3; stroke-width: 0.8; stroke-linecap: square"/>
     </g>
     <g id="line2d_12">
      <defs>
       <path id="m691952e417" d="M 0 0 
L -3.5 0 
" style="stroke: #000000; stroke-width: 0.8"/>
      </defs>
      <g>
       <use xlink:href="#m691952e417" x="62.3" y="363.04" style="stroke: #000000; stroke-width: 0.8"/>
      </g>
     </g>
     <g id="text_7">
      <!-- 0 -->
      <g transform="translate(43.21125 370.258516) scale(0.19 -0.19)">
       <use xlink:href="#DejaVuSans-30"/>
      </g>
     </g>
    </g>
    <g id="ytick_2">
     <g id="line2d_13">
      <path d="M 62.3 298.616 
L 411.48 298.616 
" clip-path="url(#p969b60b78f)" style="fill: none; stroke: #b0b0b0; stroke-opacity: 0.3; stroke-width: 0.8; stroke-linecap: square"/>
     </g>
     <g id="line2d_14">
      <g>
       <use xlink:href="#m691952e417" x="62.3" y="298.616" style="stroke: #000000; stroke-width: 0.8"/>
      </g>
     </g>
     <g id="text_8">
      <!-- 1 -->
      <g transform="translate(43.21125 305.834516) scale(0.19 -0.19)">
       <defs>
        <path id="DejaVuSans-31" d="M 794 531 
L 1825 531 
L 1825 4091 
L 703 3866 
L 703 4441 
L 1819 4666 
L 2450 4666 
L 2450 531 
L 3481 531 
L 3481 0 
L 794 0 
L 794 531 
z
" transform="scale(0.015625)"/>
       </defs>
       <use xlink:href="#DejaVuSans-31"/>
      </g>
     </g>
    </g>
    <g id="ytick_3">
     <g id="line2d_15">
      <path d="M 62.3 234.192 
L 411.48 234.192 
" clip-path="url(#p969b60b78f)" style="fill: none; stroke: #b0b0b0; stroke-opacity: 0.3; stroke-width: 0.8; stroke-linecap: square"/>
     </g>
     <g id="line2d_16">
      <g>
       <use xlink:href="#m691952e417" x="62.3" y="234.192" style="stroke: #000000; stroke-width: 0.8"/>
      </g>
     </g>
     <g id="text_9">
      <!-- 2 -->
      <g transform="translate(43.21125 241.410516) scale(0.19 -0.19)">
       <use xlink:href="#DejaVuSans-32"/>
      </g>
     </g>
    </g>
    <g id="ytick_4">
     <g id="line2d_17">
      <path d="M 62.3 169.768 
L 411.48 169.768 
" clip-path="url(#p969b60b78f)" style="fill: none; stroke: #b0b0b0; stroke-opacity: 0.3; stroke-width: 0.8; stroke-linecap: square"/>
     </g>
     <g id="line2d_18">
      <g>
       <use xlink:href="#m691952e417" x="62.3" y="169.768" style="stroke: #000000; stroke-width: 0.8"/>
      </g>
     </g>
     <g id="text_10">
      <!-- 3 -->
      <g transform="translate(43.21125 176.986516) scale(0.19 -0.19)">
       <defs>
        <path id="DejaVuSans-33" d="M 2597 2516 
Q 3050 2419 3304 2112 
Q 3559 1806 3559 1356 
Q 3559 666 3084 287 
Q 2609 -91 1734 -91 
Q 1441 -91 1130 -33 
Q 819 25 488 141 
L 488 750 
Q 750 597 1062 519 
Q 1375 441 1716 441 
Q 2309 441 2620 675 
Q 2931 909 2931 1356 
Q 2931 1769 2642 2001 
Q 2353 2234 1838 2234 
L 1294 2234 
L 1294 2753 
L 1863 2753 
Q 2328 2753 2575 2939 
Q 2822 3125 2822 3475 
Q 2822 3834 2567 4026 
Q 2313 4219 1838 4219 
Q 1578 4219 1281 4162 
Q 984 4106 628 3988 
L 628 4550 
Q 988 4650 1302 4700 
Q 1616 4750 1894 4750 
Q 2613 4750 3031 4423 
Q 3450 4097 3450 3541 
Q 3450 3153 3228 2886 
Q 3006 2619 2597 2516 
z
" transform="scale(0.015625)"/>
       </defs>
       <use xlink:href="#DejaVuSans-33"/>
      </g>
     </g>
    </g>
    <g id="ytick_5">
     <g id="line2d_19">
      <path d="M 62.3 105.344 
L 411.48 105.344 
" clip-path="url(#p969b60b78f)" style="fill: none; stroke: #b0b0b0; stroke-opacity: 0.3; stroke-width: 0.8; stroke-linecap: square"/>
     </g>
     <g id="line2d_20">
      <g>
       <use xlink:href="#m691952e417" x="62.3" y="105.344" style="stroke: #000000; stroke-width: 0.8"/>
      </g>
     </g>
     <g id="text_11">
      <!-- 4 -->
      <g transform="translate(43.21125 112.562516) scale(0.19 -0.19)">
       <use xlink:href="#DejaVuSans-34"/>
      </g>
     </g>
    </g>
    <g id="ytick_6">
     <g id="line2d_21">
      <path d="M 62.3 40.92 
L 411.48 40.92 
" clip-path="url(#p969b60b78f)" style="fill: none; stroke: #b0b0b0; stroke-opacity: 0.3; stroke-width: 0.8; stroke-linecap: square"/>
     </g>
     <g id="line2d_22">
      <g>
       <use xlink:href="#m691952e417" x="62.3" y="40.92" style="stroke: #000000; stroke-width: 0.8"/>
      </g>
     </g>
     <g id="text_12">
      <!-- 5 -->
      <g transform="translate(43.21125 48.138516) scale(0.19 -0.19)">
       <defs>
        <path id="DejaVuSans-35" d="M 691 4666 
L 3169 4666 
L 3169 4134 
L 1269 4134 
L 1269 2991 
Q 1406 3038 1543 3061 
Q 1681 3084 1819 3084 
Q 2600 3084 3056 2656 
Q 3513 2228 3513 1497 
Q 3513 744 3044 326 
Q 2575 -91 1722 -91 
Q 1428 -91 1123 -41 
Q 819 9 494 109 
L 494 744 
Q 775 591 1075 516 
Q 1375 441 1709 441 
Q 2250 441 2565 725 
Q 2881 1009 2881 1497 
Q 2881 1984 2565 2268 
Q 2250 2553 1709 2553 
Q 1456 2553 1204 2497 
Q 953 2441 691 2322 
L 691 4666 
z
" transform="scale(0.015625)"/>
       </defs>
       <use xlink:href="#DejaVuSans-35"/>
      </g>
     </g>
    </g>
    <g id="text_13">
     <!-- Density Estimation -->
     <g transform="translate(35.259844 291.703047) rotate(-90) scale(0.19 -0.19)">
      <defs>
       <path id="DejaVuSans-44" d="M 1259 4147 
L 1259 519 
L 2022 519 
Q 2988 519 3436 956 
Q 3884 1394 3884 2338 
Q 3884 3275 3436 3711 
Q 2988 4147 2022 4147 
L 1259 4147 
z
M 628 4666 
L 1925 4666 
Q 3281 4666 3915 4102 
Q 4550 3538 4550 2338 
Q 4550 1131 3912 565 
Q 3275 0 1925 0 
L 628 0 
L 628 4666 
z
" transform="scale(0.015625)"/>
       <path id="DejaVuSans-6e" d="M 3513 2113 
L 3513 0 
L 2938 0 
L 2938 2094 
Q 2938 2591 2744 2837 
Q 2550 3084 2163 3084 
Q 1697 3084 1428 2787 
Q 1159 2491 1159 1978 
L 1159 0 
L 581 0 
L 581 3500 
L 1159 3500 
L 1159 2956 
Q 1366 3272 1645 3428 
Q 1925 3584 2291 3584 
Q 2894 3584 3203 3211 
Q 3513 2838 3513 2113 
z
" transform="scale(0.015625)"/>
       <path id="DejaVuSans-73" d="M 2834 3397 
L 2834 2853 
Q 2591 2978 2328 3040 
Q 2066 3103 1784 3103 
Q 1356 3103 1142 2972 
Q 928 2841 928 2578 
Q 928 2378 1081 2264 
Q 1234 2150 1697 2047 
L 1894 2003 
Q 2506 1872 2764 1633 
Q 3022 1394 3022 966 
Q 3022 478 2636 193 
Q 2250 -91 1575 -91 
Q 1294 -91 989 -36 
Q 684 19 347 128 
L 347 722 
Q 666 556 975 473 
Q 1284 391 1588 391 
Q 1994 391 2212 530 
Q 2431 669 2431 922 
Q 2431 1156 2273 1281 
Q 2116 1406 1581 1522 
L 1381 1569 
Q 847 1681 609 1914 
Q 372 2147 372 2553 
Q 372 3047 722 3315 
Q 1072 3584 1716 3584 
Q 2034 3584 2315 3537 
Q 2597 3491 2834 3397 
z
" transform="scale(0.015625)"/>
       <path id="DejaVuSans-45" d="M 628 4666 
L 3578 4666 
L 3578 4134 
L 1259 4134 
L 1259 2753 
L 3481 2753 
L 3481 2222 
L 1259 2222 
L 1259 531 
L 3634 531 
L 3634 0 
L 628 0 
L 628 4666 
z
" transform="scale(0.015625)"/>
      </defs>
      <use xlink:href="#DejaVuSans-44"/>
      <use xlink:href="#DejaVuSans-65" x="77.001953"/>
      <use xlink:href="#DejaVuSans-6e" x="138.525391"/>
      <use xlink:href="#DejaVuSans-73" x="201.904297"/>
      <use xlink:href="#DejaVuSans-69" x="254.003906"/>
      <use xlink:href="#DejaVuSans-74" x="281.787109"/>
      <use xlink:href="#DejaVuSans-79" x="320.996094"/>
      <use xlink:href="#DejaVuSans-20" x="380.175781"/>
      <use xlink:href="#DejaVuSans-45" x="411.962891"/>
      <use xlink:href="#DejaVuSans-73" x="475.146484"/>
      <use xlink:href="#DejaVuSans-74" x="527.246094"/>
      <use xlink:href="#DejaVuSans-69" x="566.455078"/>
      <use xlink:href="#DejaVuSans-6d" x="594.238281"/>
      <use xlink:href="#DejaVuSans-61" x="691.650391"/>
      <use xlink:href="#DejaVuSans-74" x="752.929688"/>
      <use xlink:href="#DejaVuSans-69" x="792.138672"/>
      <use xlink:href="#DejaVuSans-6f" x="819.921875"/>
      <use xlink:href="#DejaVuSans-6e" x="881.103516"/>
     </g>
    </g>
   </g>
   <g id="line2d_23">
    <path d="M 60.747195 360.46769 
L 62.609826 168.797854 
L 64.472457 362.019356 
L 66.335087 361.437665 
L 68.197718 361.323719 
L 70.060349 361.419906 
L 71.922979 360.379917 
L 73.78561 359.784534 
L 75.648241 360.524492 
L 77.510871 360.65038 
L 79.373502 360.345979 
L 81.236133 361.063449 
L 83.098763 360.492492 
L 84.961394 360.956578 
L 86.824025 360.711666 
L 88.686655 359.188891 
L 90.549286 360.663684 
L 92.411917 361.28787 
L 94.274547 360.411222 
L 96.137178 360.855424 
L 97.999809 361.110379 
L 99.862439 360.33631 
L 101.72507 361.109099 
L 105.450331 361.152342 
L 107.312962 360.385869 
L 109.175593 360.938255 
L 111.038223 360.992531 
L 112.900854 360.234033 
L 114.763485 360.006368 
L 116.626115 360.368231 
L 118.488746 358.346883 
L 120.351377 360.278604 
L 122.214007 361.348375 
L 124.076638 360.297114 
L 125.939269 361.03633 
L 127.8019 361.559537 
L 129.66453 360.870267 
L 131.527161 360.873323 
L 133.389792 361.249192 
L 135.252422 360.040716 
L 137.115053 361.1385 
L 138.977684 361.335008 
L 140.840314 361.770623 
L 142.702945 361.260526 
L 146.428206 360.756846 
L 148.290837 361.366693 
L 150.153468 360.979211 
L 152.016098 361.238949 
L 153.878729 360.343653 
L 155.74136 361.74266 
L 157.60399 361.275287 
L 159.466621 361.089446 
L 161.329252 360.416212 
L 163.191882 361.131361 
L 165.054513 360.590536 
L 166.917144 361.014463 
L 170.642405 360.667987 
L 176.230297 361.661052 
L 178.092928 360.919319 
L 179.955558 361.133653 
L 181.818189 360.901226 
L 183.68082 360.974879 
L 185.54345 360.042459 
L 187.406081 360.951424 
L 189.268712 360.930164 
L 194.856604 360.230401 
L 196.719234 361.069373 
L 198.581865 360.176379 
L 200.444496 360.126489 
L 202.307127 361.075255 
L 204.169757 359.867172 
L 206.032388 359.464411 
L 207.895019 360.847329 
L 209.757649 358.112731 
L 211.62028 359.951889 
L 213.482911 360.577028 
L 215.345541 359.519284 
L 217.208172 359.497942 
L 219.070803 359.225983 
L 220.933433 360.163657 
L 222.796064 359.489101 
L 224.658695 360.188519 
L 226.521325 358.987638 
L 228.383956 359.885087 
L 230.246587 359.745441 
L 232.109217 359.473634 
L 233.971848 359.794751 
L 235.834479 358.909513 
L 237.697109 359.737269 
L 239.55974 358.141863 
L 241.422371 358.896638 
L 243.285001 360.125484 
L 245.147632 357.831306 
L 248.872893 359.447976 
L 250.735524 359.013848 
L 252.598155 357.835491 
L 254.460785 357.72969 
L 256.323416 358.366646 
L 258.186047 356.793689 
L 260.048677 356.845307 
L 261.911308 357.166302 
L 263.773939 357.145888 
L 265.636569 358.02081 
L 267.4992 357.978768 
L 269.361831 350.275855 
L 271.224461 357.391878 
L 273.087092 356.812102 
L 274.949723 356.933915 
L 276.812354 356.299016 
L 278.674984 356.583227 
L 280.537615 355.535955 
L 282.400246 353.465845 
L 284.262876 357.929833 
L 286.125507 356.326446 
L 287.988138 356.509447 
L 289.850768 355.376667 
L 291.713399 353.694469 
L 293.57603 354.863315 
L 295.43866 354.430288 
L 297.301291 353.852055 
L 299.163922 352.987356 
L 301.026552 353.734517 
L 302.889183 354.962448 
L 304.751814 355.550724 
L 306.614444 351.830527 
L 308.477075 355.604763 
L 310.339706 355.255151 
L 312.202336 353.035176 
L 314.064967 352.779718 
L 315.927598 351.53819 
L 317.790228 350.528966 
L 319.652859 349.242386 
L 321.51549 349.257934 
L 323.37812 350.727113 
L 325.240751 348.462212 
L 328.966012 350.399635 
L 330.828643 345.454551 
L 332.691274 348.583918 
L 334.553904 344.493937 
L 336.416535 350.316801 
L 338.279166 341.845885 
L 340.141796 348.661587 
L 342.004427 348.390313 
L 343.867058 344.22625 
L 345.729688 345.602759 
L 347.592319 342.323614 
L 349.45495 343.854221 
L 351.31758 340.604476 
L 353.180211 340.894463 
L 355.042842 346.219806 
L 356.905473 336.642923 
L 358.768103 339.302652 
L 360.630734 338.697018 
L 364.355995 335.351725 
L 366.218626 331.93728 
L 368.081257 331.396954 
L 369.943887 330.451646 
L 371.806518 329.644206 
L 373.669149 327.058197 
L 375.531779 322.585587 
L 377.39441 316.667766 
L 379.257041 322.100829 
L 381.119671 317.270146 
L 382.982302 314.114783 
L 384.844933 314.062989 
L 386.707563 306.486063 
L 388.570194 302.821748 
L 392.295455 298.629319 
L 394.158086 290.639941 
L 396.020717 285.412366 
L 397.883347 279.534979 
L 399.745978 263.06291 
L 401.608609 249.458222 
L 403.471239 245.162236 
L 405.33387 226.853351 
L 407.196501 212.470375 
L 409.059131 187.028957 
L 410.921762 167.56346 
L 412.784393 137.469625 
L 414.647023 82.141965 
L 416.509654 37.350081 
L 417.392124 -1 
M 431.184521 -1 
L 431.4107 342.661297 
L 431.4107 342.661297 
" clip-path="url(#p969b60b78f)" style="fill: none; stroke: #d62728; stroke-width: 1.5; stroke-linecap: square"/>
   </g>
   <g id="line2d_24">
    <path d="M 60.411103 361.356987 
L 62.277112 211.39265 
L 64.14312 360.58641 
L 66.009129 362.262516 
L 67.875137 362.332456 
L 69.741146 362.663184 
L 71.607154 362.042317 
L 73.473163 362.115184 
L 75.339171 360.92219 
L 77.20518 360.844766 
L 79.071188 360.383022 
L 80.937197 361.246587 
L 82.803205 360.022645 
L 84.669214 359.863309 
L 86.535222 359.39359 
L 88.401231 359.301731 
L 90.267239 358.126496 
L 92.133248 358.153018 
L 93.999256 357.525022 
L 95.865264 358.460156 
L 99.597281 357.895004 
L 101.46329 357.335841 
L 103.329298 354.805863 
L 105.195307 357.732356 
L 107.061315 358.394947 
L 108.927324 358.249348 
L 110.793332 358.242413 
L 112.659341 357.370168 
L 118.257366 358.756468 
L 120.123375 357.613284 
L 121.989383 358.48781 
L 123.855392 357.933552 
L 125.7214 358.121382 
L 129.453417 359.060926 
L 131.319426 357.779996 
L 133.185434 357.907471 
L 136.917451 358.567993 
L 138.78346 357.838543 
L 140.649468 358.115592 
L 142.515477 357.970892 
L 144.381485 358.183562 
L 146.247494 357.100258 
L 148.113502 359.186688 
L 149.97951 358.343556 
L 151.845519 357.184016 
L 153.711527 356.315276 
L 155.577536 357.324329 
L 157.443544 357.40846 
L 159.309553 357.701667 
L 161.175561 355.877546 
L 163.04157 356.834172 
L 164.907578 355.797175 
L 166.773587 356.069544 
L 168.639595 356.049318 
L 170.505604 355.655701 
L 172.371612 355.800644 
L 174.237621 356.356346 
L 176.103629 355.730043 
L 177.969638 357.047805 
L 179.835646 356.639466 
L 183.567663 356.312001 
L 185.433672 352.414772 
L 187.29968 355.642874 
L 189.165689 354.563001 
L 191.031697 353.088351 
L 194.763714 354.911975 
L 196.629723 354.666057 
L 198.495731 354.667208 
L 200.36174 353.813475 
L 202.227748 353.555664 
L 204.093756 352.740065 
L 205.959765 352.256588 
L 207.825773 353.297177 
L 209.691782 350.871009 
L 211.55779 351.370252 
L 213.423799 351.153788 
L 215.289807 351.280161 
L 217.155816 352.012754 
L 219.021824 350.950417 
L 220.887833 350.308461 
L 222.753841 350.359364 
L 224.61985 351.048547 
L 226.485858 350.026235 
L 228.351867 350.010964 
L 230.217875 350.6449 
L 232.083884 347.096436 
L 233.949892 348.295071 
L 235.815901 346.728456 
L 237.681909 346.305685 
L 239.547918 345.073941 
L 241.413926 346.084071 
L 243.279935 347.513707 
L 245.145943 347.235751 
L 247.011952 347.386015 
L 248.87796 346.305895 
L 250.743969 345.484159 
L 252.609977 342.237308 
L 254.475986 344.69119 
L 256.341994 341.33527 
L 258.208003 342.343511 
L 260.074011 341.60357 
L 261.940019 340.398871 
L 263.806028 340.804031 
L 265.672036 340.256857 
L 267.538045 342.329543 
L 269.404053 335.976231 
L 271.270062 339.33862 
L 273.13607 338.854572 
L 275.002079 339.444908 
L 276.868087 337.783705 
L 278.734096 338.008134 
L 280.600104 336.604223 
L 282.466113 336.792703 
L 284.332121 337.392716 
L 286.19813 333.009591 
L 288.064138 334.544687 
L 289.930147 332.085875 
L 291.796155 331.369262 
L 293.662164 332.869302 
L 295.528172 333.412696 
L 297.394181 332.965444 
L 299.260189 329.820227 
L 301.126198 326.457082 
L 302.992206 331.044824 
L 306.724223 322.397167 
L 308.590232 331.548174 
L 310.45624 324.157953 
L 312.322249 320.604169 
L 314.188257 325.042751 
L 316.054265 322.900275 
L 317.920274 321.936499 
L 321.652291 317.813846 
L 323.518299 318.793544 
L 325.384308 316.807809 
L 327.250316 317.519689 
L 329.116325 311.756705 
L 330.982333 309.029322 
L 332.848342 309.247355 
L 334.71435 306.952486 
L 336.580359 314.157908 
L 338.446367 307.62976 
L 340.312376 308.423506 
L 342.178384 308.275419 
L 344.044393 302.815295 
L 345.910401 302.074434 
L 347.77641 298.390146 
L 349.642418 297.810107 
L 351.508427 298.172452 
L 355.240444 291.301607 
L 357.106452 294.744203 
L 358.972461 293.187195 
L 360.838469 287.462226 
L 362.704478 280.508449 
L 364.570486 279.321075 
L 366.436495 274.761012 
L 368.302503 271.438087 
L 370.168512 272.390616 
L 372.03452 269.835629 
L 373.900528 262.03003 
L 375.766537 264.552469 
L 377.632545 255.208878 
L 379.498554 254.427531 
L 381.364562 252.971756 
L 383.230571 244.518872 
L 385.096579 239.648568 
L 386.962588 232.564371 
L 388.828596 228.116357 
L 390.694605 221.478678 
L 392.560613 223.508726 
L 394.426622 214.466999 
L 396.29263 203.399294 
L 398.158639 196.102048 
L 400.024647 186.33748 
L 401.890656 174.729109 
L 403.756664 170.45925 
L 405.622673 155.182745 
L 407.488681 141.719474 
L 409.35469 130.222615 
L 411.220698 115.148707 
L 413.086707 87.498415 
L 414.952715 65.610542 
L 416.818724 34.785043 
L 418.269674 -1 
M 430.838243 -1 
L 431.746791 358.10085 
L 431.746791 358.10085 
" clip-path="url(#p969b60b78f)" style="fill: none; stroke: #ff7f0e; stroke-width: 1.5; stroke-linecap: square"/>
   </g>
   <g id="line2d_25">
    <path d="M 61.485668 362.893087 
L 63.340877 363.031519 
L 67.051294 362.989531 
L 70.761712 362.856803 
L 72.616921 363.039442 
L 76.327338 362.70763 
L 78.182547 363.039689 
L 80.037756 362.843051 
L 83.748174 362.908094 
L 85.603383 362.663462 
L 87.458592 363.030231 
L 89.3138 362.683402 
L 93.024218 362.760476 
L 94.879427 363.039998 
L 96.734636 362.536334 
L 98.589845 362.999099 
L 100.445053 362.705945 
L 102.300262 362.700726 
L 104.155471 362.556877 
L 107.865889 362.882636 
L 111.576306 362.13976 
L 113.431515 362.503098 
L 115.286724 362.606612 
L 117.141933 362.845883 
L 118.997142 362.337789 
L 120.852351 362.249848 
L 122.707559 362.684533 
L 124.562768 362.5343 
L 126.417977 362.860223 
L 130.128395 362.298051 
L 131.983604 362.271288 
L 133.838813 362.536476 
L 135.694021 360.677597 
L 137.54923 362.250724 
L 139.404439 362.689659 
L 141.259648 362.447662 
L 144.970066 362.25562 
L 146.825274 362.075869 
L 148.680483 362.163395 
L 150.535692 362.547152 
L 152.390901 361.570743 
L 154.24611 358.659732 
L 156.101319 362.6871 
L 157.956527 361.907559 
L 159.811736 362.466773 
L 161.666945 362.559197 
L 163.522154 361.72982 
L 165.377363 361.846743 
L 167.232572 361.534609 
L 169.08778 362.008101 
L 170.942989 361.567096 
L 172.798198 361.840046 
L 174.653407 361.785186 
L 176.508616 362.423922 
L 178.363825 362.27843 
L 180.219034 362.268668 
L 182.074242 362.488383 
L 183.929451 362.235827 
L 185.78466 362.316494 
L 187.639869 362.160714 
L 189.495078 361.34786 
L 191.350287 361.652176 
L 193.205495 360.836632 
L 195.060704 361.016506 
L 196.915913 361.498723 
L 198.771122 361.715582 
L 200.626331 361.29174 
L 202.48154 361.812503 
L 204.336748 362.191433 
L 206.191957 361.466601 
L 208.047166 361.853249 
L 209.902375 361.778835 
L 211.757584 361.275296 
L 213.612793 361.415313 
L 215.468002 359.805294 
L 217.32321 361.829731 
L 219.178419 361.807119 
L 221.033628 360.877161 
L 222.888837 361.592326 
L 224.744046 361.574318 
L 226.599255 361.818771 
L 228.454463 361.183532 
L 230.309672 361.691842 
L 232.164881 360.844579 
L 234.02009 361.380653 
L 235.875299 361.574199 
L 237.730508 359.445193 
L 239.585716 360.403159 
L 241.440925 360.738686 
L 243.296134 361.405396 
L 245.151343 362.602474 
L 247.006552 362.134588 
L 248.861761 360.893677 
L 250.716969 360.353647 
L 252.572178 361.373651 
L 254.427387 360.32123 
L 256.282596 360.223918 
L 258.137805 359.935128 
L 259.993014 359.284311 
L 261.848223 359.640129 
L 263.703431 361.214553 
L 265.55864 360.839799 
L 267.413849 360.866225 
L 269.269058 359.182318 
L 271.124267 359.852795 
L 272.979476 361.725751 
L 274.834684 359.522991 
L 276.689893 359.035428 
L 278.545102 357.131402 
L 280.400311 359.432724 
L 282.25552 360.875678 
L 284.110729 359.7743 
L 285.965937 357.839607 
L 287.821146 359.18022 
L 289.676355 360.031995 
L 291.531564 360.390784 
L 293.386773 358.770085 
L 295.241982 359.874128 
L 297.09719 357.852309 
L 298.952399 358.270029 
L 302.662817 358.417107 
L 304.518026 356.990097 
L 306.373235 360.417982 
L 308.228444 360.611296 
L 310.083652 355.856991 
L 311.938861 357.148633 
L 313.79407 357.268349 
L 315.649279 355.873462 
L 317.504488 355.476121 
L 319.359697 354.655675 
L 321.214905 355.584887 
L 323.070114 354.495151 
L 324.925323 336.928081 
L 326.780532 353.614109 
L 328.635741 352.627817 
L 330.49095 355.933523 
L 332.346158 352.734311 
L 334.201367 352.890602 
L 336.056576 352.664888 
L 337.911785 331.280391 
L 339.766994 353.629688 
L 341.622203 348.706639 
L 343.477411 350.081197 
L 345.33262 349.47562 
L 347.187829 349.100163 
L 349.043038 349.539769 
L 350.898247 346.871446 
L 352.753456 348.365109 
L 354.608665 345.568337 
L 356.463873 314.295022 
L 358.319082 343.834371 
L 360.174291 343.805769 
L 362.0295 343.00695 
L 363.884709 340.485996 
L 365.739918 339.623745 
L 367.595126 342.132687 
L 369.450335 341.758082 
L 371.305544 333.212914 
L 373.160753 326.862898 
L 375.015962 331.696059 
L 376.871171 332.629697 
L 378.726379 325.987594 
L 380.581588 324.977334 
L 382.436797 318.276417 
L 384.292006 315.905909 
L 386.147215 308.227901 
L 388.002424 311.460354 
L 389.857632 309.195167 
L 391.712841 291.897332 
L 393.56805 301.606431 
L 395.423259 289.966749 
L 397.278468 276.89649 
L 399.133677 234.36137 
L 400.988886 257.435166 
L 402.844094 237.714339 
L 404.699303 221.932663 
L 406.554512 198.880196 
L 408.409721 169.05227 
L 410.26493 146.142294 
L 412.120139 100.127806 
L 413.975347 51.084955 
L 414.779657 -1 
M 430.390979 -1 
L 430.672227 344.440783 
L 430.672227 344.440783 
" clip-path="url(#p969b60b78f)" style="fill: none; stroke: #2ca02c; stroke-width: 1.5; stroke-linecap: square"/>
   </g>
   <g id="line2d_26">
    <path d="M 59.128775 362.310758 
L 61.007671 331.759579 
L 62.886567 304.125086 
L 64.765464 352.751478 
L 66.64436 354.709328 
L 68.523256 352.137093 
L 70.402152 348.631483 
L 72.281048 344.075295 
L 74.159945 338.574629 
L 76.038841 333.735225 
L 77.917737 330.895117 
L 79.796633 327.271152 
L 81.675529 322.477801 
L 83.554426 319.32035 
L 85.433322 313.984977 
L 87.312218 309.758621 
L 89.191114 308.491569 
L 91.07001 305.652539 
L 92.948907 304.632228 
L 94.827803 304.314375 
L 98.585595 296.444858 
L 100.464491 294.191451 
L 102.343388 294.768378 
L 104.222284 293.151065 
L 106.10118 292.580439 
L 107.980076 292.251224 
L 109.858972 290.968763 
L 111.737869 287.605905 
L 113.616765 288.95865 
L 115.495661 289.168161 
L 117.374557 290.934308 
L 119.253454 294.586508 
L 123.011246 292.515137 
L 124.890142 292.46701 
L 126.769038 291.209007 
L 128.647935 293.149454 
L 130.526831 293.317698 
L 132.405727 292.793291 
L 134.284623 293.881166 
L 136.163519 295.917875 
L 138.042416 299.904376 
L 139.921312 299.136411 
L 141.800208 298.165015 
L 143.679104 301.833781 
L 145.558 303.687481 
L 147.436897 303.788277 
L 149.315793 305.654179 
L 151.194689 303.972484 
L 153.073585 305.678618 
L 154.952481 307.587578 
L 156.831378 308.586913 
L 158.710274 310.614525 
L 160.58917 312.158602 
L 162.468066 312.363527 
L 164.346962 315.719789 
L 166.225859 314.85456 
L 168.104755 313.305063 
L 169.983651 315.075217 
L 171.862547 315.587518 
L 173.741443 317.039402 
L 175.62034 317.450623 
L 177.499236 317.668273 
L 179.378132 319.939474 
L 181.257028 321.915653 
L 183.135924 322.448633 
L 185.014821 319.576456 
L 186.893717 323.1637 
L 188.772613 324.090086 
L 190.651509 325.293025 
L 192.530406 321.839938 
L 194.409302 321.671398 
L 196.288198 325.916727 
L 198.167094 324.476692 
L 200.04599 327.092228 
L 201.924887 326.807735 
L 203.803783 325.446618 
L 205.682679 329.561309 
L 207.561575 327.143295 
L 209.440471 330.238514 
L 211.319368 328.859206 
L 213.198264 331.507594 
L 215.07716 328.211431 
L 216.956056 330.240339 
L 218.834952 327.668746 
L 220.713849 332.228049 
L 222.592745 329.598392 
L 224.471641 332.5062 
L 226.350537 329.076455 
L 228.229433 333.464419 
L 230.10833 332.418471 
L 231.987226 330.511726 
L 233.866122 332.377438 
L 235.745018 328.985083 
L 237.623914 332.059054 
L 239.502811 330.713803 
L 241.381707 330.715596 
L 243.260603 336.018597 
L 245.139499 325.976221 
L 247.018395 326.129928 
L 248.897292 334.857257 
L 250.776188 327.760455 
L 252.655084 329.658134 
L 254.53398 331.033618 
L 256.412876 330.32803 
L 258.291773 330.01568 
L 260.170669 334.281231 
L 263.928461 328.785387 
L 265.807358 330.243083 
L 267.686254 330.080991 
L 269.56515 327.758344 
L 271.444046 326.131782 
L 273.322942 329.750402 
L 275.201839 331.351675 
L 277.080735 324.803094 
L 278.959631 326.221831 
L 280.838527 328.78642 
L 282.717423 325.177634 
L 284.59632 325.266632 
L 286.475216 324.431713 
L 288.354112 321.575196 
L 290.233008 324.581289 
L 292.111904 321.801772 
L 293.990801 319.373068 
L 295.869697 324.475816 
L 297.748593 322.863348 
L 299.627489 321.883565 
L 301.506385 320.486761 
L 303.385282 320.594071 
L 305.264178 325.108555 
L 307.143074 316.942949 
L 309.02197 325.048598 
L 310.900866 319.937067 
L 312.779763 312.71414 
L 314.658659 318.037146 
L 316.537555 319.387563 
L 318.416451 317.686595 
L 320.295347 316.510747 
L 322.174244 312.214338 
L 324.05314 311.740377 
L 325.932036 313.964993 
L 327.810932 315.914239 
L 329.689828 312.771433 
L 331.568725 314.046902 
L 333.447621 311.543188 
L 335.326517 310.265798 
L 337.205413 308.770017 
L 339.08431 310.294977 
L 340.963206 310.983063 
L 342.842102 309.219955 
L 344.720998 307.212457 
L 346.599894 304.691884 
L 348.478791 302.902612 
L 350.357687 301.896309 
L 352.236583 301.267431 
L 354.115479 301.596225 
L 355.994375 294.98686 
L 357.873272 295.527619 
L 359.752168 295.818393 
L 361.631064 298.931132 
L 363.50996 297.034892 
L 365.388856 292.638637 
L 367.267753 290.543342 
L 369.146649 288.77712 
L 371.025545 290.101217 
L 372.904441 287.56589 
L 374.783337 286.608636 
L 376.662234 283.07325 
L 378.54113 284.014707 
L 380.420026 282.422653 
L 382.298922 281.094949 
L 384.177818 277.139341 
L 386.056715 273.634219 
L 387.935611 272.866356 
L 389.814507 272.366041 
L 391.693403 269.673151 
L 393.572299 268.355377 
L 395.451196 268.995557 
L 397.330092 267.779915 
L 399.208988 262.462166 
L 401.087884 263.076415 
L 402.96678 263.932639 
L 404.845677 265.78241 
L 406.724573 259.196833 
L 408.603469 254.64757 
L 410.482365 251.092411 
L 412.361262 246.237055 
L 414.240158 237.063439 
L 416.119054 227.166604 
L 417.99795 219.475545 
L 419.876846 194.978897 
L 421.755743 165.982173 
L 423.634639 108.629864 
L 425.406806 -1 
M 430.36063 -1 
L 431.150224 188.986566 
L 433 356.995888 
L 433 356.995888 
" clip-path="url(#p969b60b78f)" style="fill: none; stroke: #9467bd; stroke-width: 1.5; stroke-linecap: square"/>
   </g>
   <g id="patch_3">
    <path d="M 62.3 363.04 
L 62.3 40.92 
" style="fill: none; stroke: #000000; stroke-width: 0.8; stroke-linejoin: miter; stroke-linecap: square"/>
   </g>
   <g id="patch_4">
    <path d="M 411.48 363.04 
L 411.48 40.92 
" style="fill: none; stroke: #000000; stroke-width: 0.8; stroke-linejoin: miter; stroke-linecap: square"/>
   </g>
   <g id="patch_5">
    <path d="M 62.3 363.04 
L 411.48 363.04 
" style="fill: none; stroke: #000000; stroke-width: 0.8; stroke-linejoin: miter; stroke-linecap: square"/>
   </g>
   <g id="patch_6">
    <path d="M 62.3 40.92 
L 411.48 40.92 
" style="fill: none; stroke: #000000; stroke-width: 0.8; stroke-linejoin: miter; stroke-linecap: square"/>
   </g>
   <g id="text_14">
    <!-- Similarity Score -->
    <g transform="translate(162.350625 34.92) scale(0.19 -0.19)">
     <use xlink:href="#DejaVuSans-53"/>
     <use xlink:href="#DejaVuSans-69" x="63.476562"/>
     <use xlink:href="#DejaVuSans-6d" x="91.259766"/>
     <use xlink:href="#DejaVuSans-69" x="188.671875"/>
     <use xlink:href="#DejaVuSans-6c" x="216.455078"/>
     <use xlink:href="#DejaVuSans-61" x="244.238281"/>
     <use xlink:href="#DejaVuSans-72" x="305.517578"/>
     <use xlink:href="#DejaVuSans-69" x="346.630859"/>
     <use xlink:href="#DejaVuSans-74" x="374.414062"/>
     <use xlink:href="#DejaVuSans-79" x="413.623047"/>
     <use xlink:href="#DejaVuSans-20" x="472.802734"/>
     <use xlink:href="#DejaVuSans-53" x="504.589844"/>
     <use xlink:href="#DejaVuSans-63" x="568.066406"/>
     <use xlink:href="#DejaVuSans-6f" x="623.046875"/>
     <use xlink:href="#DejaVuSans-72" x="684.228516"/>
     <use xlink:href="#DejaVuSans-65" x="723.091797"/>
    </g>
   </g>
   <g id="legend_1">
    <g id="patch_7">
     <path d="M 75.6 167.67375 
L 309.3475 167.67375 
Q 313.1475 167.67375 313.1475 163.87375 
L 313.1475 54.22 
Q 313.1475 50.42 309.3475 50.42 
L 75.6 50.42 
Q 71.8 50.42 71.8 54.22 
L 71.8 163.87375 
Q 71.8 167.67375 75.6 167.67375 
z
" style="fill: #ffffff; opacity: 0.8; stroke: #cccccc; stroke-linejoin: miter"/>
    </g>
    <g id="line2d_27">
     <path d="M 79.4 65.807031 
L 98.4 65.807031 
L 117.4 65.807031 
" style="fill: none; stroke: #d62728; stroke-width: 1.5; stroke-linecap: square"/>
    </g>
    <g id="text_15">
     <!-- ANTLR-Java -->
     <g transform="translate(132.6 72.457031) scale(0.19 -0.19)">
      <defs>
       <path id="DejaVuSans-41" d="M 2188 4044 
L 1331 1722 
L 3047 1722 
L 2188 4044 
z
M 1831 4666 
L 2547 4666 
L 4325 0 
L 3669 0 
L 3244 1197 
L 1141 1197 
L 716 0 
L 50 0 
L 1831 4666 
z
" transform="scale(0.015625)"/>
       <path id="DejaVuSans-4e" d="M 628 4666 
L 1478 4666 
L 3547 763 
L 3547 4666 
L 4159 4666 
L 4159 0 
L 3309 0 
L 1241 3903 
L 1241 0 
L 628 0 
L 628 4666 
z
" transform="scale(0.015625)"/>
       <path id="DejaVuSans-54" d="M -19 4666 
L 3928 4666 
L 3928 4134 
L 2272 4134 
L 2272 0 
L 1638 0 
L 1638 4134 
L -19 4134 
L -19 4666 
z
" transform="scale(0.015625)"/>
       <path id="DejaVuSans-4c" d="M 628 4666 
L 1259 4666 
L 1259 531 
L 3531 531 
L 3531 0 
L 628 0 
L 628 4666 
z
" transform="scale(0.015625)"/>
       <path id="DejaVuSans-52" d="M 2841 2188 
Q 3044 2119 3236 1894 
Q 3428 1669 3622 1275 
L 4263 0 
L 3584 0 
L 2988 1197 
Q 2756 1666 2539 1819 
Q 2322 1972 1947 1972 
L 1259 1972 
L 1259 0 
L 628 0 
L 628 4666 
L 2053 4666 
Q 2853 4666 3247 4331 
Q 3641 3997 3641 3322 
Q 3641 2881 3436 2590 
Q 3231 2300 2841 2188 
z
M 1259 4147 
L 1259 2491 
L 2053 2491 
Q 2509 2491 2742 2702 
Q 2975 2913 2975 3322 
Q 2975 3731 2742 3939 
Q 2509 4147 2053 4147 
L 1259 4147 
z
" transform="scale(0.015625)"/>
       <path id="DejaVuSans-2d" d="M 313 2009 
L 1997 2009 
L 1997 1497 
L 313 1497 
L 313 2009 
z
" transform="scale(0.015625)"/>
       <path id="DejaVuSans-4a" d="M 628 4666 
L 1259 4666 
L 1259 325 
Q 1259 -519 939 -900 
Q 619 -1281 -91 -1281 
L -331 -1281 
L -331 -750 
L -134 -750 
Q 284 -750 456 -515 
Q 628 -281 628 325 
L 628 4666 
z
" transform="scale(0.015625)"/>
       <path id="DejaVuSans-76" d="M 191 3500 
L 800 3500 
L 1894 563 
L 2988 3500 
L 3597 3500 
L 2284 0 
L 1503 0 
L 191 3500 
z
" transform="scale(0.015625)"/>
      </defs>
      <use xlink:href="#DejaVuSans-41"/>
      <use xlink:href="#DejaVuSans-4e" x="68.408203"/>
      <use xlink:href="#DejaVuSans-54" x="143.212891"/>
      <use xlink:href="#DejaVuSans-4c" x="204.296875"/>
      <use xlink:href="#DejaVuSans-52" x="260.009766"/>
      <use xlink:href="#DejaVuSans-2d" x="325.492188"/>
      <use xlink:href="#DejaVuSans-4a" x="367.201172"/>
      <use xlink:href="#DejaVuSans-61" x="396.693359"/>
      <use xlink:href="#DejaVuSans-76" x="457.972656"/>
      <use xlink:href="#DejaVuSans-61" x="517.152344"/>
     </g>
    </g>
    <g id="line2d_28">
     <path d="M 79.4 93.695469 
L 98.4 93.695469 
L 117.4 93.695469 
" style="fill: none; stroke: #ff7f0e; stroke-width: 1.5; stroke-linecap: square"/>
    </g>
    <g id="text_16">
     <!-- ANTLR-Java8-spec -->
     <g transform="translate(132.6 100.345469) scale(0.19 -0.19)">
      <defs>
       <path id="DejaVuSans-70" d="M 1159 525 
L 1159 -1331 
L 581 -1331 
L 581 3500 
L 1159 3500 
L 1159 2969 
Q 1341 3281 1617 3432 
Q 1894 3584 2278 3584 
Q 2916 3584 3314 3078 
Q 3713 2572 3713 1747 
Q 3713 922 3314 415 
Q 2916 -91 2278 -91 
Q 1894 -91 1617 61 
Q 1341 213 1159 525 
z
M 3116 1747 
Q 3116 2381 2855 2742 
Q 2594 3103 2138 3103 
Q 1681 3103 1420 2742 
Q 1159 2381 1159 1747 
Q 1159 1113 1420 752 
Q 1681 391 2138 391 
Q 2594 391 2855 752 
Q 3116 1113 3116 1747 
z
" transform="scale(0.015625)"/>
      </defs>
      <use xlink:href="#DejaVuSans-41"/>
      <use xlink:href="#DejaVuSans-4e" x="68.408203"/>
      <use xlink:href="#DejaVuSans-54" x="143.212891"/>
      <use xlink:href="#DejaVuSans-4c" x="204.296875"/>
      <use xlink:href="#DejaVuSans-52" x="260.009766"/>
      <use xlink:href="#DejaVuSans-2d" x="325.492188"/>
      <use xlink:href="#DejaVuSans-4a" x="367.201172"/>
      <use xlink:href="#DejaVuSans-61" x="396.693359"/>
      <use xlink:href="#DejaVuSans-76" x="457.972656"/>
      <use xlink:href="#DejaVuSans-61" x="517.152344"/>
      <use xlink:href="#DejaVuSans-38" x="578.431641"/>
      <use xlink:href="#DejaVuSans-2d" x="642.054688"/>
      <use xlink:href="#DejaVuSans-73" x="678.138672"/>
      <use xlink:href="#DejaVuSans-70" x="730.238281"/>
      <use xlink:href="#DejaVuSans-65" x="793.714844"/>
      <use xlink:href="#DejaVuSans-63" x="855.238281"/>
     </g>
    </g>
    <g id="line2d_29">
     <path d="M 79.4 121.583906 
L 98.4 121.583906 
L 117.4 121.583906 
" style="fill: none; stroke: #2ca02c; stroke-width: 1.5; stroke-linecap: square"/>
    </g>
    <g id="text_17">
     <!-- Tree-sitter -->
     <g transform="translate(132.6 128.233906) scale(0.19 -0.19)">
      <use xlink:href="#DejaVuSans-54"/>
      <use xlink:href="#DejaVuSans-72" x="46.333984"/>
      <use xlink:href="#DejaVuSans-65" x="85.197266"/>
      <use xlink:href="#DejaVuSans-65" x="146.720703"/>
      <use xlink:href="#DejaVuSans-2d" x="208.244141"/>
      <use xlink:href="#DejaVuSans-73" x="244.328125"/>
      <use xlink:href="#DejaVuSans-69" x="296.427734"/>
      <use xlink:href="#DejaVuSans-74" x="324.210938"/>
      <use xlink:href="#DejaVuSans-74" x="363.419922"/>
      <use xlink:href="#DejaVuSans-65" x="402.628906"/>
      <use xlink:href="#DejaVuSans-72" x="464.152344"/>
     </g>
    </g>
    <g id="line2d_30">
     <path d="M 79.4 149.472344 
L 98.4 149.472344 
L 117.4 149.472344 
" style="fill: none; stroke: #9467bd; stroke-width: 1.5; stroke-linecap: square"/>
    </g>
    <g id="text_18">
     <!-- JDT-JLS21 -->
     <g transform="translate(132.6 156.122344) scale(0.19 -0.19)">
      <use xlink:href="#DejaVuSans-4a"/>
      <use xlink:href="#DejaVuSans-44" x="29.492188"/>
      <use xlink:href="#DejaVuSans-54" x="106.494141"/>
      <use xlink:href="#DejaVuSans-2d" x="158.453125"/>
      <use xlink:href="#DejaVuSans-4a" x="200.162109"/>
      <use xlink:href="#DejaVuSans-4c" x="229.654297"/>
      <use xlink:href="#DejaVuSans-53" x="285.367188"/>
      <use xlink:href="#DejaVuSans-32" x="348.84375"/>
      <use xlink:href="#DejaVuSans-31" x="412.466797"/>
     </g>
    </g>
   </g>
  </g>
 </g>
 <defs>
  <clipPath id="p969b60b78f">
   <rect x="62.3" y="40.92" width="349.18" height="322.12"/>
  </clipPath>
 </defs>
</svg>
